<svg width="50" height="48" viewBox="0 0 50 48" fill="none" xmlns="http://www.w3.org/2000/svg">
<path d="M41.6667 32.1788C38.0556 32.1788 35 34.324 33.8889 37.5419H22.2222C22.2222 35.6648 21.6667 34.0559 20.8333 32.7151L40.5556 13.1397C41.3889 13.1397 42.2222 13.4078 43.0556 13.4078C46.9444 13.4078 50 10.4581 50 6.70391C50 2.94972 46.9444 0 43.0556 0C39.1667 0 36.1111 2.94972 36.1111 6.70391C36.1111 7.50838 36.3889 8.58101 36.6667 9.38548L17.2222 28.6927C15.5556 27.352 13.3333 26.8156 11.1111 26.8156V15.5531C14.4444 14.4804 16.6667 11.5307 16.6667 8.04469C16.6667 3.48603 13.0556 0 8.33333 0C3.61111 0 0 3.48603 0 8.04469C0 11.5307 2.22222 14.4804 5.55556 15.5531V28.1564C2.22222 30.0335 0 33.5196 0 37.2737C0 43.1732 5 48 11.1111 48C15.2778 48 18.8889 45.8547 20.5556 42.6369H33.6111C34.7222 45.5866 37.7778 48 41.3889 48C45.8333 48 49.7222 44.514 49.7222 39.9553C50 35.6648 46.1111 32.1788 41.6667 32.1788Z" fill="#E6E6E6"/>
</svg>
