<svg width="59" height="40" viewBox="0 0 59 40" fill="none" xmlns="http://www.w3.org/2000/svg">
<path d="M29.5 12C27.3662 12 25.3198 12.8429 23.811 14.3431C22.3022 15.8434 21.4545 17.8783 21.4545 20C21.4545 22.1217 22.3022 24.1566 23.811 25.6569C25.3198 27.1571 27.3662 28 29.5 28C31.6338 28 33.6802 27.1571 35.189 25.6569C36.6978 24.1566 37.5455 22.1217 37.5455 20C37.5455 17.8783 36.6978 15.8434 35.189 14.3431C33.6802 12.8429 31.6338 12 29.5 12ZM29.5 33.3333C25.9437 33.3333 22.533 31.9286 20.0183 29.4281C17.5036 26.9276 16.0909 23.5362 16.0909 20C16.0909 16.4638 17.5036 13.0724 20.0183 10.5719C22.533 8.07142 25.9437 6.66667 29.5 6.66667C33.0563 6.66667 36.467 8.07142 38.9817 10.5719C41.4964 13.0724 42.9091 16.4638 42.9091 20C42.9091 23.5362 41.4964 26.9276 38.9817 29.4281C36.467 31.9286 33.0563 33.3333 29.5 33.3333ZM29.5 0C16.0909 0 4.63955 8.29333 0 20C4.63955 31.7067 16.0909 40 29.5 40C42.9091 40 54.3605 31.7067 59 20C54.3605 8.29333 42.9091 0 29.5 0Z" fill="white"/>
</svg>
