<svg width="56" height="56" viewBox="0 0 56 56" fill="none" xmlns="http://www.w3.org/2000/svg">
<path d="M47.05 52C45.3275 52 43.7817 51.5004 42.4125 50.5013C41.0433 49.5022 40.0938 48.224 39.5638 46.6667H25.85C22.935 46.6667 20.4396 45.6222 18.3638 43.5333C16.2879 41.4444 15.25 38.9333 15.25 36C15.25 33.0667 16.2879 30.5556 18.3638 28.4667C20.4396 26.3778 22.935 25.3333 25.85 25.3333H31.15C32.6075 25.3333 33.8557 24.8116 34.8945 23.768C35.9333 22.7244 36.4518 21.4684 36.45 20C36.4482 18.5316 35.9297 17.2764 34.8945 16.2347C33.8592 15.1929 32.611 14.6702 31.15 14.6667H17.4362C16.8621 16.2222 15.901 17.5004 14.5531 18.5013C13.2051 19.5022 11.6707 20.0018 9.95 20C7.74167 20 5.86458 19.2222 4.31875 17.6667C2.77292 16.1111 2 14.2222 2 12C2 9.77778 2.77292 7.88889 4.31875 6.33333C5.86458 4.77778 7.74167 4 9.95 4C11.6725 4 13.2077 4.50044 14.5557 5.50133C15.9037 6.50222 16.8638 7.77956 17.4362 9.33333H31.15C34.065 9.33333 36.5604 10.3778 38.6362 12.4667C40.7121 14.5556 41.75 17.0667 41.75 20C41.75 22.9333 40.7121 25.4444 38.6362 27.5333C36.5604 29.6222 34.065 30.6667 31.15 30.6667H25.85C24.3925 30.6667 23.1452 31.1893 22.1082 32.2347C21.0712 33.28 20.5518 34.5351 20.55 36C20.5482 37.4649 21.0676 38.7209 22.1082 39.768C23.1488 40.8151 24.396 41.3369 25.85 41.3333H39.5638C40.1379 39.7778 41.099 38.5004 42.447 37.5013C43.7949 36.5022 45.3293 36.0018 47.05 36C49.2583 36 51.1354 36.7778 52.6813 38.3333C54.2271 39.8889 55 41.7778 55 44C55 46.2222 54.2271 48.1111 52.6813 49.6667C51.1354 51.2222 49.2583 52 47.05 52ZM9.95 14.6667C10.7008 14.6667 11.3307 14.4107 11.8394 13.8987C12.3482 13.3867 12.6018 12.7538 12.6 12C12.5982 11.2462 12.3438 10.6133 11.8368 10.1013C11.3298 9.58933 10.7008 9.33333 9.95 9.33333C9.19917 9.33333 8.57023 9.58933 8.0632 10.1013C7.55617 10.6133 7.30177 11.2462 7.3 12C7.29823 12.7538 7.55263 13.3876 8.0632 13.9013C8.57377 14.4151 9.2027 14.6702 9.95 14.6667Z" fill="white"/>
</svg>
