<svg width="48" height="52" viewBox="0 0 48 52" fill="none" xmlns="http://www.w3.org/2000/svg">
<path fill-rule="evenodd" clip-rule="evenodd" d="M24 0.666748C36.887 0.666748 47.3333 11.1131 47.3333 24.0001C47.3333 36.8871 36.887 47.3334 24 47.3334C11.113 47.3334 0.666626 36.8871 0.666626 24.0001C0.666626 11.1131 11.113 0.666748 24 0.666748ZM28.6293 29.2501C27.3926 30.3421 25.7756 31.0001 24 31.0001C22.2952 30.9999 20.6492 30.3776 19.3706 29.2501C18.9065 28.8404 18.2986 28.6319 17.6808 28.6704C17.0629 28.7089 16.4856 28.9913 16.076 29.4554C15.6663 29.9195 15.4578 30.5274 15.4963 31.1453C15.5348 31.7631 15.8172 32.3404 16.2813 32.7501C18.413 34.6301 21.1577 35.6672 24 35.6667C26.843 35.6715 29.5892 34.6338 31.7186 32.7501C32.1828 32.3404 32.4651 31.7631 32.5036 31.1453C32.5421 30.5274 32.3336 29.9195 31.924 29.4554C31.5143 28.9913 30.937 28.7089 30.3192 28.6704C29.7013 28.6319 29.0934 28.8404 28.6293 29.2501ZM15.8333 14.6667C13.297 14.6667 11.2646 16.2534 10.2473 18.2881C9.97985 18.8204 9.92614 19.4349 10.0972 20.0055C10.2682 20.5762 10.651 21.0598 11.1672 21.3572C11.6834 21.6547 12.2937 21.7435 12.8732 21.6054C13.4527 21.4672 13.9575 21.1127 14.284 20.6144L14.4193 20.3787C14.7973 19.6227 15.376 19.3334 15.8333 19.3334C16.23 19.3334 16.7246 19.5551 17.0956 20.1174L17.2473 20.3787C17.5274 20.9271 18.0129 21.3424 18.5979 21.5343C19.1829 21.7263 19.8201 21.6792 20.3706 21.4033C20.921 21.1275 21.3401 20.6452 21.5366 20.0617C21.733 19.4782 21.6909 18.8407 21.4193 18.2881C20.3996 16.2534 18.3696 14.6667 15.8333 14.6667ZM32.1666 14.6667C29.6303 14.6667 27.6003 16.2534 26.5806 18.2881C26.3132 18.8204 26.2595 19.4349 26.4305 20.0055C26.6016 20.5762 26.9844 21.0598 27.5005 21.3572C28.0167 21.6547 28.6271 21.7435 29.2066 21.6054C29.7861 21.4672 30.2908 21.1127 30.6173 20.6144L30.7526 20.3787C31.1306 19.6227 31.7093 19.3334 32.1666 19.3334C32.5633 19.3334 33.058 19.5551 33.429 20.1174L33.5806 20.3787C33.7164 20.6551 33.9056 20.9019 34.1373 21.1048C34.3689 21.3077 34.6384 21.4627 34.9303 21.561C35.2221 21.6592 35.5305 21.6987 35.8377 21.6772C36.1449 21.6557 36.4448 21.5736 36.7201 21.4356C36.9954 21.2977 37.2407 21.1066 37.4418 20.8734C37.6429 20.6402 37.7958 20.3695 37.8918 20.0769C37.9878 19.7843 38.0249 19.4756 38.001 19.1686C37.9771 18.8616 37.8927 18.5623 37.7526 18.2881C36.7353 16.2534 34.703 14.6667 32.1666 14.6667Z" fill="white"/>
</svg>
